<svg width="79" height="28" viewBox="0 0 79 28" fill="none" xmlns="http://www.w3.org/2000/svg">
<g clip-path="url(#clip0_1_829)">
<path d="M9.10299 3.5H0.565918V23.9167L9.10299 3.5Z" fill="#4C4C4D"/>
<path d="M15.1096 3.5H23.6356V23.9167L15.1096 3.5Z" fill="#4C4C4D"/>
<path d="M12.1061 11.0254L17.5398 23.9172H13.9748L12.3508 19.8127H8.37427L12.1061 11.0254Z" fill="#4C4C4D"/>
<path d="M37.5634 16.4822L38.5701 19.3687C38.6034 19.441 38.6535 19.4744 38.7425 19.4744H40.6779C40.7836 19.4744 40.8003 19.4243 40.7836 19.3187L36.7848 8.21212C36.7681 8.12313 36.7514 8.10645 36.6624 8.10645H34.2598C34.1931 8.10645 34.1541 8.1565 34.1541 8.2288C34.1208 8.81277 34.0707 8.99074 33.9984 9.16315L30.4334 19.302C30.4167 19.4243 30.4557 19.4744 30.5558 19.4744H32.2854C32.3911 19.4744 32.4412 19.441 32.4801 19.3353L33.4311 16.4822H37.5634ZM33.9817 14.5968C34.5045 13.0173 35.1942 10.9929 35.4722 9.83611H35.4889C35.8338 11.0485 36.6457 13.4512 37.0128 14.5968H33.9817Z" fill="#4C4C4D"/>
<path d="M45.9244 19.6466C46.9644 19.6466 48.0711 19.4576 49.1946 18.9737C49.2836 18.9403 49.3003 18.9014 49.3003 18.818C49.2669 18.5065 49.228 18.056 49.228 17.7112V7.25538C49.228 7.18864 49.228 7.15527 49.1445 7.15527H47.2592C47.1869 7.15527 47.1535 7.18864 47.1535 7.27763V10.8204C46.8587 10.787 46.6529 10.7703 46.4082 10.7703C43.366 10.7703 41.4973 12.7781 41.4973 15.2863C41.4973 18.1951 43.4161 19.6466 45.9244 19.6466ZM47.1535 17.7112C46.842 17.8113 46.4972 17.8502 46.1468 17.8502C44.7675 17.8502 43.6385 17.0716 43.6385 15.1807C43.6385 13.5066 44.8009 12.5167 46.3415 12.5167C46.6529 12.5167 46.9254 12.55 47.1535 12.639V17.7112Z" fill="#4C4C4D"/>
<path d="M55.314 10.7715C52.7167 10.7715 51.1094 12.7625 51.1094 15.2208C51.1094 17.4176 52.3885 19.6478 55.275 19.6478C57.7166 19.6478 59.4295 17.8514 59.4295 15.1652C59.4295 12.7959 57.978 10.7715 55.314 10.7715ZM55.2083 12.5178C56.6765 12.5178 57.2994 13.7803 57.2994 15.2208C57.2994 17.0005 56.3818 17.8848 55.314 17.8848C53.9958 17.8848 53.2172 16.778 53.2172 15.1818C53.2172 13.5412 54.0459 12.5178 55.2083 12.5178Z" fill="#4C4C4D"/>
<path d="M61.3794 7.15527C61.3071 7.15527 61.2571 7.18864 61.2571 7.27763V19.1127C61.2571 19.1628 61.3071 19.2518 61.3794 19.2685C62.2081 19.5243 63.0757 19.6466 63.9711 19.6466C66.535 19.6466 69.0266 18.056 69.0266 14.8525C69.0266 12.5333 67.436 10.7703 64.9444 10.7703C64.3716 10.7703 63.8377 10.8593 63.3705 11.015L63.3482 7.29431C63.3482 7.17196 63.3149 7.15527 63.1925 7.15527H61.3794ZM66.8965 15.0639C66.8965 16.9826 65.584 17.8836 64.1658 17.8836C63.871 17.8836 63.6096 17.8669 63.3705 17.7946V12.7447C63.643 12.639 63.9711 12.55 64.5774 12.55C65.9455 12.55 66.8965 13.4176 66.8965 15.0639Z" fill="#4C4C4D"/>
<path d="M76.063 15.6879C76.9083 15.6879 77.6035 15.6713 77.8427 15.6156C77.9317 15.599 77.965 15.5656 77.9817 15.4933C78.0318 15.3042 78.054 14.9093 78.054 14.4255C78.054 12.7792 77.0641 10.7715 74.5057 10.7715C71.8918 10.7715 70.4402 12.9016 70.4402 15.3042C70.4402 17.4343 71.5636 19.6478 74.7115 19.6478C75.8906 19.6478 76.6525 19.4587 77.3088 19.1473C77.3755 19.1139 77.4089 19.0583 77.4089 18.9582V17.5177C77.4089 17.4343 77.3588 17.4176 77.3088 17.451C76.6525 17.7291 75.9406 17.8681 75.162 17.8681C73.399 17.8681 72.5981 16.8948 72.548 15.6879H76.063ZM72.548 14.1974C72.6871 13.3521 73.221 12.4344 74.4167 12.4344C75.7348 12.4344 76.0796 13.5412 76.0796 14.0417C76.0796 14.0584 76.0796 14.1307 76.0796 14.1808C76.0073 14.1974 75.7849 14.1974 75.1286 14.1974H72.548Z" fill="#4C4C4D"/>
</g>
<defs>
<clipPath id="clip0_1_829">
<rect width="77.5833" height="28" fill="white" transform="translate(0.565674)"/>
</clipPath>
</defs>
</svg>
